<?xml version="1.0" encoding="UTF-8"?>
<svg id="Layer_1" xmlns="http://www.w3.org/2000/svg" viewBox="0 0 1238.16 1437.21">
  <defs>
    <style>
      .cls-1 {
        fill: #ff2181;
      }

      .cls-2 {
        fill: #1904ff;
      }
    </style>
  </defs>
  <g>
    <path class="cls-2" d="M295.63,1371.33c-7.03-81.17-14.05-161.6-21.06-241.23-49.81-10.71-99.06-23.79-147.5-39.24-6.82,68.49-13.62,135.7-20.4,201.55-36.06-18.91-71.65-39.9-106.66-62.97C38.82,914.46,78.36,545.77,118.46,138.69c57.65-29.43,116.48-53.58,176.06-72.46,41.45,421.78,83.26,872.38,125.3,1336.47-41.66-7.95-83.1-18.41-124.19-31.38ZM257.99,952.7c-19.51-218.34-38.92-429.88-58.23-632.89-19.31,213.43-38.51,419.07-57.59,615.18,38.16,6.74,76.81,12.64,115.82,17.71Z"/>
    <path class="cls-2" d="M838.61,1072.22c0,109.93-15.71,196.95-47.3,261.48-31.59,64.28-77.62,101.37-138.16,103.43-60.56,1.97-106.72-32.2-138.43-95.45-31.72-63.44-47.52-151.31-47.52-263.21V358.74c0-111.87,15.8-199.74,47.52-263.21C546.42,32.31,592.58-1.89,653.15.08c60.54,2.05,106.57,39.19,138.16,103.43,31.59,64.56,47.29,151.58,47.3,261.48v132.12c-38.96-2.68-78.14-4.63-117.41-5.87v-149.59c0-91.54-21.51-139.47-64.64-140.78-43.14-1.01-64.71,46.08-64.71,138.3v758.87c0,90.9,21.57,137.3,64.71,136.29,43.13-1.31,64.64-48.54,64.64-138.77v-199.45c39.27-.97,78.45-2.5,117.41-4.59v180.7Z"/>
    <path class="cls-2" d="M1197.35,634.28v153.32c-52.99,4.13-107.18,7.65-162.23,10.59v362.54c69.26-20.5,137.17-46.24,203.04-77.24v145.95c-103.99,68.51-213.09,118.71-324.56,150.58V57.18c111.47,31.88,220.57,82.07,324.56,150.58v145.95c-65.86-30.99-133.77-56.74-203.04-77.24v344.85c55.05,3.58,109.24,7.9,162.23,12.94Z"/>
  </g>
  <path class="cls-1" d="M786.37,559.28v94.12l81.36-27.12,18.35,58.23-82.95,25.53,54.24,78.17-49.45,35.1-54.24-73.38-55.83,73.38-49.45-35.1,54.24-78.17-82.95-25.53,18.34-58.23,81.36,27.12v-94.12h67Z"/>
</svg>